# xmcd CD database file
#
# Track frame offsets:
#	150
#	19059
#	32639
#	44969
#	61990
#	74655
#	88629
#	99110
#	111015
#	120722
#	135016
#	144720
#	172578
#	192072
#	212426
#	226484
#	240945
#	255734
#
# Disc length: 3944 seconds
#
# Revision: 1
# Processed by: cddbd v1.4PL0 Copyright (c) Steve Scherf et al.
# Submitted via: CDex 1.40Release
#
DISCID=eb0f6612
DTITLE=Varios Artistas - Canta meu Brasil - Volumen II
DYEAR=2002
DGENRE=Blues
TTITLE0=Desafinado
TTITLE1=O comilão
TTITLE2=Pais Tropical
TTITLE3=Samba pra Vinícius - A felicidade
TTITLE4=Insensatez
TTITLE5=Chuva de prata
TTITLE6=Upa neguinho
TTITLE7=Triste
TTITLE8=Chega de saudade
TTITLE9=Berimbau
TTITLE10=Crickets sing for Anamaria
TTITLE11=Samba de uma nota só
TTITLE12=Moça
TTITLE13=Aquele Abraço
TTITLE14=Olho por olho
TTITLE15=Você e eu
TTITLE16=Sampa
TTITLE17=Blues a volente
EXTD=YEAR: 2002 ID3G: 0
EXTT0=
EXTT1=
EXTT2=
EXTT3=
EXTT4=
EXTT5=
EXTT6=
EXTT7=
EXTT8=
EXTT9=
EXTT10=
EXTT11=
EXTT12=
EXTT13=
EXTT14=
EXTT15=
EXTT16=
EXTT17=
PLAYORDER=
